<svg width="190" height="161" viewBox="0 0 190 161" fill="none" xmlns="http://www.w3.org/2000/svg">
<path d="M63.9317 40.2028C63.1462 43.1317 56.438 44.8741 56.438 44.8741C56.438 44.8741 41.8929 41.5441 35.1881 35.4595C28.4954 29.386 24.1466 11.7253 24.1466 11.7253C24.1466 11.7253 34.866 21.3242 42.1253 25.12C49.7831 29.1242 74.2419 32.1019 74.2419 32.1019C74.2419 32.1019 64.8991 36.5957 63.9317 40.2028Z" fill="#C1F3D5"/>
<path d="M124.646 40.2028C125.431 43.1317 132.139 44.8741 132.139 44.8741C132.139 44.8741 146.684 41.5441 153.389 35.4595C160.082 29.386 164.431 11.7253 164.431 11.7253C164.431 11.7253 153.711 21.3242 146.452 25.12C138.794 29.1242 114.335 32.1019 114.335 32.1019C114.335 32.1019 123.678 36.5957 124.646 40.2028Z" fill="#C1F3D5"/>
<path fill-rule="evenodd" clip-rule="evenodd" d="M185.992 37.3648C172.384 29.9614 160.324 28.0963 150.147 31.8182C142.824 34.4964 138.142 39.512 135.435 43.4134C131.556 39.8519 124.889 35.0216 114.969 31.9969C114.969 31.9969 102.854 28.4708 95.0304 28.4722C87.2328 28.4736 75.03 31.9969 75.03 31.9969C65.1097 35.0208 58.4432 39.8519 54.5641 43.4134C51.857 39.512 47.1756 34.4964 39.8524 31.8182C29.674 28.0954 17.6149 29.9622 4.0065 37.3648L0 39.5442L2.56072 43.3183C11.1337 55.9581 20.8315 62.7677 31.3845 63.5592C32.0735 63.6113 32.7533 63.6353 33.4233 63.6353C40.8739 63.6353 47.0788 60.5858 51.2201 57.7744L66.8714 125.249C62.9791 130.392 60.659 136.209 60.659 141.574C60.659 160.081 86.5069 160.081 95.0004 160.081C103.494 160.081 129.342 160.081 129.342 141.574C129.342 136.305 127.077 130.475 123.131 125.246L138.78 57.7744C142.921 60.5858 149.126 63.6353 156.577 63.6353C157.246 63.6353 157.927 63.6105 158.616 63.5592C169.169 62.7677 178.866 55.9581 187.439 43.3183L190 39.5442L185.992 37.3648ZM31.9345 55.3072C25.0762 54.7687 18.4486 50.4645 12.1899 42.5003C21.7677 38.0811 30.0677 37.0869 36.9104 39.55C43.1352 41.7906 46.8315 46.5184 48.604 49.4223C45.5189 51.9053 39.3222 55.8911 31.9345 55.3072ZM94.9988 151.811C68.9284 151.811 68.9284 144.107 68.9284 141.575C68.9284 132.527 80.608 118.66 94.9988 118.66C109.39 118.66 121.069 132.527 121.069 141.575C121.069 144.107 121.069 151.811 94.9988 151.811ZM158.064 55.3072C150.673 55.8903 144.48 51.9053 141.394 49.4223C143.166 46.5184 146.862 41.7906 153.087 39.55C159.931 37.0869 168.231 38.0811 177.808 42.5003C171.55 50.4645 164.921 54.7679 158.064 55.3072ZM131.464 51.2577L131.514 51.1311C127.829 47.1842 116.547 37.4326 94.9971 37.431C88.3778 37.431 82.7345 38.3548 77.9745 39.7452L58.2654 51.5472L68.5 95.6691L73.7331 118.239C79.6461 113.54 87.0768 110.389 94.9979 110.389C102.529 110.389 109.954 113.144 116.272 118.205L131.732 51.548L131.464 51.2577Z" fill="url(#paint0_linear_530_3246)"/>
<path d="M131.514 51.1311L131.464 51.2577L131.732 51.548L116.272 118.205C109.954 113.144 102.529 110.389 94.9979 110.389C87.0768 110.389 79.6461 113.54 73.7331 118.239L68.5 95.6691L58.2654 51.5472L77.9745 39.7452C82.7345 38.3548 88.3778 37.431 94.9971 37.431C116.547 37.4326 127.829 47.1842 131.514 51.1311Z" fill="url(#paint1_linear_530_3246)"/>
<path d="M78.8388 130.539C77.0407 132.337 77.0407 135.252 78.8388 137.05C80.637 138.848 83.5525 138.848 85.3498 137.05C87.1479 135.252 85.9784 133.506 84.1803 131.708C82.3821 129.91 80.637 128.741 78.8388 130.539Z" fill="url(#paint2_linear_530_3246)"/>
<path d="M104.796 131.708C102.998 133.506 101.829 135.252 103.627 137.05C105.425 138.848 108.34 138.848 110.138 137.05C111.936 135.252 111.936 132.337 110.138 130.539C108.34 128.741 106.594 129.91 104.796 131.708Z" fill="url(#paint3_linear_530_3246)"/>
<defs>
<linearGradient id="paint0_linear_530_3246" x1="114.189" y1="149.134" x2="86.6845" y2="-9.29319" gradientUnits="userSpaceOnUse">
<stop stop-color="#25BB7F"/>
<stop offset="1" stop-color="#C4F4D6"/>
</linearGradient>
<linearGradient id="paint1_linear_530_3246" x1="114.189" y1="149.134" x2="86.6845" y2="-9.29319" gradientUnits="userSpaceOnUse">
<stop stop-color="#25BB7F"/>
<stop offset="1" stop-color="#C4F4D6"/>
</linearGradient>
<linearGradient id="paint2_linear_530_3246" x1="85.2667" y1="154.154" x2="57.7621" y2="-4.27243" gradientUnits="userSpaceOnUse">
<stop stop-color="#25BB7F"/>
<stop offset="1" stop-color="#64CFAA"/>
</linearGradient>
<linearGradient id="paint3_linear_530_3246" x1="109.802" y1="149.895" x2="82.2977" y2="-8.53254" gradientUnits="userSpaceOnUse">
<stop stop-color="#25BB7F"/>
<stop offset="1" stop-color="#64CFAA"/>
</linearGradient>
</defs>
</svg>
