<svg width="102" height="127" viewBox="0 0 102 127" fill="none" xmlns="http://www.w3.org/2000/svg">
<rect x="0.5" y="0.201172" width="101" height="91.3777" rx="21.5" fill="white"/>
<path d="M38.4958 26.0824C38.1797 27.2611 35.4801 27.9623 35.4801 27.9623C35.4801 27.9623 29.6267 26.6222 26.9284 24.1736C24.235 21.7294 22.4849 14.6221 22.4849 14.6221C22.4849 14.6221 26.7988 18.485 29.7202 20.0126C32.8019 21.624 42.645 22.8224 42.645 22.8224C42.645 22.8224 38.8851 24.6308 38.4958 26.0824Z" fill="#C1F3D5"/>
<path d="M62.9305 26.0824C63.2467 27.2611 65.9463 27.9623 65.9463 27.9623C65.9463 27.9623 71.7997 26.6222 74.498 24.1736C77.1914 21.7294 78.9415 14.6221 78.9415 14.6221C78.9415 14.6221 74.6276 18.485 71.7062 20.0126C68.6245 21.624 58.7814 22.8224 58.7814 22.8224C58.7814 22.8224 62.5412 24.6308 62.9305 26.0824Z" fill="#C1F3D5"/>
<path fill-rule="evenodd" clip-rule="evenodd" d="M87.6183 24.94C82.1418 21.9606 77.2885 21.21 73.193 22.7079C70.2459 23.7857 68.3619 25.8041 67.2725 27.3742C65.7114 25.9409 63.0286 23.997 59.0363 22.7798C59.0363 22.7798 54.1606 21.3608 51.0123 21.3613C47.8742 21.3619 42.9634 22.7798 42.9634 22.7798C38.9712 23.9967 36.2883 25.9409 34.7273 27.3742C33.6378 25.8041 31.7539 23.7857 28.8068 22.7079C24.7106 21.2097 19.8576 21.961 14.3812 24.94L12.7688 25.8171L13.7993 27.3359C17.2494 32.4226 21.1521 35.163 25.399 35.4816C25.6763 35.5025 25.9499 35.5122 26.2195 35.5122C29.2178 35.5122 31.7149 34.2849 33.3815 33.1536L39.6801 60.3076C38.1137 62.3773 37.1801 64.7183 37.1801 66.8772C37.1801 74.3252 47.5821 74.3251 51.0002 74.3251C54.4183 74.3251 64.8204 74.3252 64.8204 66.8772C64.8204 64.7569 63.909 62.4109 62.321 60.3066L68.6186 33.1536C70.2852 34.2849 72.7823 35.5122 75.7806 35.5122C76.0499 35.5122 76.3242 35.5022 76.6014 35.4816C80.848 35.163 84.7507 32.4226 88.2008 27.3359L89.2313 25.8171L87.6183 24.94ZM25.6203 32.1607C22.8603 31.944 20.1931 30.2118 17.6744 27.0067C21.5289 25.2283 24.8691 24.8282 27.6228 25.8194C30.1279 26.7211 31.6154 28.6237 32.3287 29.7924C31.0872 30.7916 28.5934 32.3957 25.6203 32.1607ZM50.9995 70.9973C40.508 70.9973 40.508 67.8967 40.508 66.8778C40.508 63.2364 45.2082 57.656 50.9995 57.656C56.7909 57.656 61.4911 63.2364 61.4911 66.8778C61.4911 67.8967 61.4911 70.9973 50.9995 70.9973ZM76.3791 32.1607C73.4047 32.3953 70.9126 30.7916 69.6704 29.7924C70.3837 28.6237 71.8712 26.7211 74.3763 25.8194C77.1303 24.8282 80.4705 25.2283 84.3247 27.0067C81.8063 30.2118 79.1388 31.9436 76.3791 32.1607ZM65.6745 30.531L65.6944 30.4801C64.2116 28.8917 59.6714 24.9673 50.9989 24.9667C48.335 24.9667 46.064 25.3385 44.1484 25.898L36.2168 30.6475L40.3355 48.4037L42.4415 57.4866C44.8211 55.5953 47.8115 54.3275 50.9992 54.3275C54.0299 54.3275 57.0182 55.4362 59.5606 57.473L65.7823 30.6478L65.6745 30.531Z" fill="url(#paint0_linear_150_2226)"/>
<path d="M65.6944 30.4801L65.6745 30.531L65.7823 30.6478L59.5606 57.473C57.0182 55.4362 54.0299 54.3275 50.9992 54.3275C47.8115 54.3275 44.8211 55.5953 42.4415 57.4866L40.3355 48.4037L36.2168 30.6475L44.1484 25.898C46.064 25.3385 48.335 24.9667 50.9989 24.9667C59.6714 24.9673 64.2116 28.8917 65.6944 30.4801Z" fill="url(#paint1_linear_150_2226)"/>
<path d="M44.496 62.4365C43.7723 63.1601 43.7723 64.3331 44.496 65.0567C45.2196 65.7803 46.3929 65.7803 47.1162 65.0567C47.8398 64.3331 47.3692 63.6308 46.6455 62.9071C45.9219 62.1835 45.2196 61.7128 44.496 62.4365Z" fill="url(#paint2_linear_150_2226)"/>
<path d="M54.9429 62.9071C54.2193 63.6308 53.7486 64.3331 54.4722 65.0567C55.1959 65.7803 56.3688 65.7803 57.0925 65.0567C57.8161 64.3331 57.8161 63.1601 57.0925 62.4365C56.3692 61.7128 55.6665 62.1835 54.9429 62.9071Z" fill="url(#paint3_linear_150_2226)"/>
<path d="M12.74 121.183H9.86V105.923H12.74V112.243H19.28V105.923H22.16V121.183H19.28V114.823H12.74V121.183ZM30.0191 121.403C28.8857 121.403 27.8857 121.156 27.0191 120.663C26.1524 120.169 25.4791 119.489 24.9991 118.623C24.5324 117.743 24.2991 116.749 24.2991 115.643C24.2991 114.616 24.5057 113.656 24.9191 112.763C25.3457 111.856 25.9791 111.123 26.8191 110.563C27.6724 110.003 28.7124 109.723 29.9391 109.723C30.9524 109.723 31.8857 109.936 32.7391 110.363C33.5924 110.776 34.2791 111.423 34.7991 112.303C35.3191 113.169 35.5791 114.249 35.5791 115.543V116.123H28.4591C28.3791 116.123 28.1591 116.123 27.7991 116.123C27.4391 116.123 27.1524 116.103 26.9391 116.063L26.8591 116.363C26.9657 116.389 27.0457 116.443 27.0991 116.523C27.1657 116.603 27.2191 116.716 27.2591 116.863C27.3657 117.143 27.4524 117.336 27.5191 117.443C27.7857 117.963 28.1391 118.369 28.5791 118.663C29.0324 118.943 29.5457 119.083 30.1191 119.083C30.7324 119.083 31.2591 118.929 31.6991 118.623C32.1391 118.303 32.4524 117.896 32.6391 117.403H35.3991C35.0391 118.589 34.4057 119.556 33.4991 120.303C32.5924 121.036 31.4324 121.403 30.0191 121.403ZM27.1791 114.403C27.3791 114.283 27.5591 114.203 27.7191 114.163C27.8791 114.123 28.0591 114.103 28.2591 114.103H31.7391C31.9524 114.103 32.1391 114.123 32.2991 114.163C32.4724 114.203 32.6657 114.283 32.8791 114.403L33.0391 114.123C32.9457 114.069 32.8791 114.023 32.8391 113.983C32.7991 113.929 32.7657 113.876 32.7391 113.823C32.7257 113.769 32.7191 113.736 32.7191 113.723C32.6657 113.496 32.5591 113.276 32.3991 113.063C32.1457 112.676 31.8124 112.383 31.3991 112.183C30.9857 111.969 30.5257 111.863 30.0191 111.863C29.5124 111.863 29.0524 111.963 28.6391 112.163C28.2391 112.363 27.9124 112.663 27.6591 113.063C27.4857 113.276 27.3724 113.496 27.3191 113.723C27.3191 113.736 27.3057 113.776 27.2791 113.843C27.2524 113.896 27.2191 113.949 27.1791 114.003C27.1391 114.043 27.0791 114.083 26.9991 114.123L27.1791 114.403ZM37.732 125.223V122.943H38.952C39.352 122.943 39.652 122.883 39.852 122.763C40.0654 122.656 40.2454 122.409 40.392 122.023L40.692 121.223L36.552 109.963H39.472L41.652 116.783C41.8254 117.289 41.9187 117.756 41.932 118.183H42.192C42.2054 117.836 42.2854 117.369 42.432 116.783L44.452 109.963H47.352L42.992 122.503C42.6454 123.503 42.2187 124.203 41.712 124.603C41.2187 125.016 40.512 125.223 39.592 125.223H37.732ZM55.8206 121.463C54.194 121.463 52.8273 121.109 51.7206 120.403C50.614 119.683 49.7873 118.723 49.2406 117.523C48.694 116.323 48.4206 114.996 48.4206 113.543C48.4206 112.089 48.694 110.769 49.2406 109.583C49.7873 108.383 50.614 107.429 51.7206 106.723C52.8273 106.003 54.194 105.643 55.8206 105.643C57.6606 105.643 59.1473 106.103 60.2806 107.023C61.414 107.943 62.0873 109.169 62.3006 110.703H59.1606C59.0273 109.903 58.654 109.289 58.0406 108.863C57.4273 108.436 56.6606 108.223 55.7406 108.223C54.3673 108.223 53.3006 108.709 52.5406 109.683C51.794 110.643 51.4206 111.929 51.4206 113.543C51.4206 115.169 51.794 116.469 52.5406 117.443C53.3006 118.403 54.3673 118.883 55.7406 118.883C56.674 118.883 57.4406 118.663 58.0406 118.223C58.6406 117.769 59.014 117.103 59.1606 116.223H62.3006C62.0873 117.836 61.414 119.116 60.2806 120.063C59.1606 120.996 57.674 121.463 55.8206 121.463ZM69.4727 121.403C68.3527 121.403 67.3593 121.156 66.4927 120.663C65.626 120.169 64.946 119.476 64.4527 118.583C63.9727 117.689 63.7327 116.663 63.7327 115.503C63.7327 114.383 63.9727 113.383 64.4527 112.503C64.946 111.623 65.626 110.943 66.4927 110.463C67.3593 109.969 68.3527 109.723 69.4727 109.723C70.5927 109.723 71.586 109.969 72.4527 110.463C73.3327 110.956 74.0127 111.643 74.4927 112.523C74.986 113.389 75.2327 114.383 75.2327 115.503C75.2327 116.663 74.9927 117.689 74.5127 118.583C74.0327 119.476 73.3527 120.169 72.4727 120.663C71.606 121.156 70.606 121.403 69.4727 121.403ZM69.4727 119.083C70.3527 119.083 71.066 118.749 71.6127 118.083C72.1593 117.416 72.4327 116.556 72.4327 115.503C72.4327 114.489 72.1593 113.663 71.6127 113.023C71.066 112.369 70.3527 112.043 69.4727 112.043C68.8993 112.043 68.386 112.189 67.9327 112.483C67.4793 112.776 67.126 113.189 66.8727 113.723C66.6193 114.243 66.4927 114.836 66.4927 115.503C66.4927 116.569 66.766 117.436 67.3127 118.103C67.8727 118.756 68.5927 119.083 69.4727 119.083ZM79.7395 121.183L76.3195 109.963H79.1995L80.8195 116.043C80.9395 116.483 80.9995 117.016 80.9995 117.643H81.2595C81.2729 117.269 81.2929 116.969 81.3195 116.743C81.3462 116.516 81.3929 116.283 81.4595 116.043L83.2595 109.963H85.5995L87.3995 116.043C87.5195 116.456 87.5929 116.989 87.6195 117.643H87.8595C87.8862 117.003 87.9529 116.469 88.0595 116.043L89.7195 109.963H92.5795L89.0995 121.183H86.5595L84.8395 115.083C84.6929 114.469 84.5995 113.896 84.5595 113.363H84.3195C84.2929 113.709 84.2595 113.996 84.2195 114.223C84.1929 114.449 84.1395 114.736 84.0595 115.083L82.2995 121.183H79.7395Z" fill="#F3FFFA"/>
<defs>
<linearGradient id="paint0_linear_150_2226" x1="58.7224" y1="69.9197" x2="47.6536" y2="6.16325" gradientUnits="userSpaceOnUse">
<stop stop-color="#25BB7F"/>
<stop offset="1" stop-color="#C4F4D6"/>
</linearGradient>
<linearGradient id="paint1_linear_150_2226" x1="58.7224" y1="69.9197" x2="47.6536" y2="6.16325" gradientUnits="userSpaceOnUse">
<stop stop-color="#25BB7F"/>
<stop offset="1" stop-color="#C4F4D6"/>
</linearGradient>
<linearGradient id="paint2_linear_150_2226" x1="47.0827" y1="71.9401" x2="36.014" y2="8.18381" gradientUnits="userSpaceOnUse">
<stop stop-color="#25BB7F"/>
<stop offset="1" stop-color="#64CFAA"/>
</linearGradient>
<linearGradient id="paint3_linear_150_2226" x1="56.9575" y1="70.2259" x2="45.8887" y2="6.4694" gradientUnits="userSpaceOnUse">
<stop stop-color="#25BB7F"/>
<stop offset="1" stop-color="#64CFAA"/>
</linearGradient>
</defs>
</svg>
